<svg width="260" height="260" xmlns="http://www.w3.org/2000/svg" xmlns:xlink="http://www.w3.org/1999/xlink" xml:space="preserve" overflow="hidden"><defs><clipPath id="clip0"><rect x="1557" y="388" width="260" height="260"/></clipPath></defs><g clip-path="url(#clip0)" transform="translate(-1557 -388)"><rect x="1557" y="388" width="260" height="260" fill="#38C887"/><rect x="1687" y="388" width="130" height="260" fill="#FFFFFF"/><path d="M1691.32 459C1707.42 459 1722.01 465.548 1732.56 476.134L1741 488.692 1730.46 481.565C1725.81 479.591 1720.69 478.5 1715.33 478.5 1693.85 478.5 1676.45 495.961 1676.45 517.5 1676.45 539.039 1693.85 556.5 1715.33 556.5 1720.69 556.5 1725.81 555.409 1730.46 553.435L1741 546.308 1732.56 558.866C1722.01 569.452 1707.42 576 1691.32 576 1659.11 576 1633 549.809 1633 517.5 1633 485.191 1659.11 459 1691.32 459Z" fill="#F0467B" fill-rule="evenodd"/><path d="M1697.61 504.206 1716.7 509.647 1728.04 492.238 1728.5 513.01 1747.59 518.45 1728.78 525.847 1729.24 546.618 1717.16 530.418 1698.35 537.815 1709.69 520.406Z" fill="#F0467B" fill-rule="evenodd"/></g></svg>