<svg width="260" height="259" xmlns="http://www.w3.org/2000/svg" xmlns:xlink="http://www.w3.org/1999/xlink" xml:space="preserve" overflow="hidden"><defs><clipPath id="clip0"><rect x="1531" y="86" width="260" height="259"/></clipPath></defs><g clip-path="url(#clip0)" transform="translate(-1531 -86)"><rect x="1531" y="85.9999" width="260" height="259" fill="#0E4052"/><rect x="1531" y="85.9999" width="141" height="139" fill="#0E4052"/><path d="M1731.51 127.928 1745.29 141.709 1731.51 155.489 1717.73 141.709Z" fill="#FFFFFF" fill-rule="evenodd"/><path d="M1700.69 183.981 1714.47 197.761 1700.69 211.541 1686.91 197.761Z" fill="#FFFFFF" fill-rule="evenodd"/><path d="M1759.97 170.201 1773.75 183.981 1759.97 197.761 1746.19 183.981Z" fill="#FFFFFF" fill-rule="evenodd"/><path d="M1731.51 275.914 1745.29 289.694 1731.51 303.475 1717.73 289.694Z" fill="#FFFFFF" fill-rule="evenodd"/><path d="M1601.55 265.634 1624.51 288.601 1601.55 311.568 1578.58 288.601Z" fill="#FFFFFF" fill-rule="evenodd"/><path d="M1743.71 204.993 1748.3 209.586 1743.71 214.179 1739.12 209.586Z" fill="#FFFFFF" fill-rule="evenodd"/><path d="M1531 225 1640.3 85.9999 1672 85.9999 1562.7 225Z" fill="#FFFFFF" fill-rule="evenodd"/><path d="M1538 225 1647.94 85.9999 1666 85.9999 1556.06 225Z" fill="#F0467B" fill-rule="evenodd"/><path d="M0 139 110.053 0 141 0 30.9466 139Z" fill="#FFFFFF" fill-rule="evenodd" transform="matrix(-1 0 0 1 1672 85.9999)"/><path d="M0 139 109.099 0 127 0 17.9007 139Z" fill="#F0467B" fill-rule="evenodd" transform="matrix(-1 0 0 1 1665 85.9999)"/><path d="M1531 142.252 1587.25 142.252 1587.25 85.9999 1615.75 85.9999 1615.75 142.252 1672 142.252 1672 168.748 1615.75 168.748 1615.75 225 1587.25 225 1587.25 168.748 1531 168.748Z" fill="#FFFFFF" fill-rule="evenodd"/><path d="M1531 148.482 1593.48 148.482 1593.48 85.9999 1609.52 85.9999 1609.52 148.482 1672 148.482 1672 162.518 1609.52 162.518 1609.52 225 1593.48 225 1593.48 162.518 1531 162.518Z" fill="#F0467B" fill-rule="evenodd"/></g></svg>