<svg width="260" height="260" xmlns="http://www.w3.org/2000/svg" xmlns:xlink="http://www.w3.org/1999/xlink" xml:space="preserve" overflow="hidden"><defs><clipPath id="clip0"><rect x="2768" y="1020" width="260" height="260"/></clipPath></defs><g clip-path="url(#clip0)" transform="translate(-2768 -1020)"><rect x="2768" y="1020" width="260" height="260" fill="#F0467B"/><rect x="2840" y="1020" width="116" height="260" fill="#FFFFFF"/><path d="M2889 1212 2897.5 1172 2906 1212Z" fill="#F0467B" fill-rule="evenodd"/><path d="M2854.29 1162.22 2845.79 1132.93 2875.08 1141.43 2875.08 1141.43 2901.45 1167.8 2880.66 1188.59 2854.29 1162.22Z" fill="#F0467B" fill-rule="evenodd"/><path d="M2877 1126.07 2898 1095 2919 1126.07 2919 1126.07 2919 1180 2877 1180 2877 1126.07Z" fill="#F0467B" fill-rule="evenodd"/><path d="M2919.39 1141.82 2949.06 1132.93 2940.17 1162.6 2940.17 1162.6 2914.18 1188.59 2893.4 1167.8 2919.39 1141.82Z" fill="#F0467B" fill-rule="evenodd"/><path d="M2857 1192 2898 1153 2939 1192Z" fill="#F0467B" fill-rule="evenodd"/></g></svg>