<svg width="260" height="260" xmlns="http://www.w3.org/2000/svg" xmlns:xlink="http://www.w3.org/1999/xlink" xml:space="preserve" overflow="hidden"><defs><clipPath id="clip0"><rect x="604" y="62" width="260" height="260"/></clipPath></defs><g clip-path="url(#clip0)" transform="translate(-604 -62)"><rect x="604" y="61.9999" width="260" height="260" fill="#FFFFFF"/><path d="M679.958 150.427 692.427 137.957 734 179.53 775.573 137.957 788.043 150.427 746.47 192 788.043 233.573 775.573 246.043 734 204.469 692.427 246.043 679.958 233.573 721.531 192Z" stroke="#0E4052" stroke-width="18.3333" stroke-miterlimit="8" fill="none" fill-rule="evenodd"/><path d="M734.24 118.872 807.734 192.366 734.24 265.861 660.745 192.366Z" fill="#FFFFFF" fill-rule="evenodd"/><path d="M695 192C695 170.461 712.461 153 734 153 755.539 153 773 170.461 773 192 773 213.539 755.539 231 734 231 712.461 231 695 213.539 695 192Z" fill="#4751D9" fill-rule="evenodd"/><path d="M734 153C755.539 153 773 170.461 773 192L695 192C695 170.461 712.461 153 734 153Z" fill="#F0467B" fill-rule="evenodd"/></g></svg>