<svg width="260" height="260" xmlns="http://www.w3.org/2000/svg" xmlns:xlink="http://www.w3.org/1999/xlink" xml:space="preserve" overflow="hidden"><defs><clipPath id="clip0"><rect x="313" y="361" width="260" height="260"/></clipPath></defs><g clip-path="url(#clip0)" transform="translate(-313 -361)"><rect x="313" y="361" width="260" height="260" fill="#FFFFFF"/><rect x="443" y="361" width="130" height="130" fill="#F0467B"/><rect x="313" y="491" width="130" height="130" fill="#4751D9"/><path d="M359 435.356 386.12 435.356 394.5 409 402.88 435.356 430 435.356 408.06 451.644 416.44 478 394.5 461.711 372.56 478 380.94 451.644Z" fill="#4751D9" fill-rule="evenodd"/><path d="M457 527.974 484.12 527.974 492.5 502 500.88 527.974 528 527.974 506.06 544.026 514.44 570 492.5 553.947 470.56 570 478.94 544.026Z" fill="#F0467B" fill-rule="evenodd"/></g></svg>