<svg width="260" height="260" xmlns="http://www.w3.org/2000/svg" xmlns:xlink="http://www.w3.org/1999/xlink" xml:space="preserve" overflow="hidden"><defs><clipPath id="clip0"><rect x="641" y="688" width="260" height="260"/></clipPath></defs><g clip-path="url(#clip0)" transform="translate(-641 -688)"><rect x="641" y="688" width="260" height="260" fill="#F0467B"/><path d="M693 818C693 774.922 727.922 740 771 740 814.078 740 849 774.922 849 818 849 861.078 814.078 896 771 896 727.922 896 693 861.078 693 818Z" fill="#FFFFFF" fill-rule="evenodd"/><path d="M775.32 760C791.425 760 806.005 766.548 816.559 777.134L825 789.692 814.461 782.565C809.809 780.591 804.695 779.5 799.327 779.5 777.854 779.5 760.446 796.961 760.446 818.5 760.446 840.039 777.854 857.5 799.327 857.5 804.695 857.5 809.809 856.409 814.461 854.435L825 847.308 816.559 859.866C806.005 870.452 791.425 877 775.32 877 743.111 877 717 850.809 717 818.5 717 786.191 743.111 760 775.32 760Z" fill="#F0467B" fill-rule="evenodd"/><path d="M778.685 818.32 797.532 812.088 797.124 791.315 809.179 808.236 828.026 802.004 816.63 818.693 828.687 835.614 809.588 829.008 798.192 845.698 797.784 824.925Z" fill="#F0467B" fill-rule="evenodd"/></g></svg>