<svg width="260" height="260" xmlns="http://www.w3.org/2000/svg" xmlns:xlink="http://www.w3.org/1999/xlink" xml:space="preserve" overflow="hidden"><g transform="translate(-1869 -79)"><rect x="1869" y="79.0001" width="260" height="260" fill="#F0467B"/><path d="M1922 209.5C1922 177.191 1948.19 151 1980.5 151 2012.81 151 2039 177.191 2039 209.5 2039 241.809 2012.81 268 1980.5 268 1948.19 268 1922 241.809 1922 209.5Z" fill="#FFFFFF" fill-rule="evenodd"/><path d="M1966 209C1966 187.461 1983.46 170 2005 170 2026.54 170 2044 187.461 2044 209 2044 230.539 2026.54 248 2005 248 1983.46 248 1966 230.539 1966 209Z" fill="#F0467B" fill-rule="evenodd"/><path d="M2025.36 208.65 2043.66 200.953 2041.61 180.277 2054.97 196.195 2073.26 188.497 2063.22 206.033 2076.57 221.951 2057.01 216.87 2046.96 234.406 2044.92 213.731Z" fill="#FFFFFF" fill-rule="evenodd"/></g></svg>