<svg width="260" height="259" xmlns="http://www.w3.org/2000/svg" xmlns:xlink="http://www.w3.org/1999/xlink" xml:space="preserve" overflow="hidden"><defs><clipPath id="clip0"><rect x="1950" y="1238" width="260" height="259"/></clipPath></defs><g clip-path="url(#clip0)" transform="translate(-1950 -1238)"><rect x="1951" y="1238" width="259" height="259" fill="#4751D9"/><rect x="1950" y="1351" width="260" height="33" fill="#FFFFFF"/><rect x="1950" y="1409" width="260" height="33" fill="#FFFFFF"/><rect x="1950" y="1465" width="260" height="32" fill="#FFFFFF"/><rect x="1951" y="1238" width="259" height="32.0004" fill="#FFFFFF"/><rect x="1951" y="1293" width="259" height="33" fill="#FFFFFF"/><rect x="1950" y="1238" width="143" height="142" fill="#FFFFFF"/><path d="M1983 1309C1983 1287.46 2000.46 1270 2022 1270 2043.54 1270 2061 1287.46 2061 1309 2061 1330.54 2043.54 1348 2022 1348 2000.46 1348 1983 1330.54 1983 1309Z" fill="#F7A021" fill-rule="evenodd"/></g></svg>