<svg width="260" height="259" xmlns="http://www.w3.org/2000/svg" xmlns:xlink="http://www.w3.org/1999/xlink" xml:space="preserve" overflow="hidden"><defs><clipPath id="clip0"><rect x="1950" y="1238" width="260" height="259"/></clipPath></defs><g clip-path="url(#clip0)" transform="translate(-1950 -1238)"><rect x="1951" y="1238" width="259" height="259" fill="#FFFFFF"/><rect x="1951" y="1358" width="259" height="18.9999" fill="#F0467B"/><rect x="1951" y="1478" width="259" height="18.9999" fill="#F0467B"/><rect x="1951" y="1238" width="259" height="19.0002" fill="#F0467B"/><rect x="1951" y="1398" width="259" height="19.9999" fill="#F0467B"/><rect x="1951" y="1437" width="259" height="20.0002" fill="#F0467B"/><rect x="1951" y="1278" width="259" height="19.9999" fill="#F0467B"/><rect x="1951" y="1317" width="259" height="19.9999" fill="#F0467B"/><rect x="1950" y="1238" width="141" height="139" fill="#4751D9"/><path d="M1978.68 1251.01 1992.46 1264.79 1978.68 1278.57 1964.9 1264.79Z" fill="#FFFFFF" fill-rule="evenodd"/><path d="M2063.53 1250.24 2077.31 1264.02 2063.53 1277.8 2049.75 1264.02Z" fill="#FFFFFF" fill-rule="evenodd"/><path d="M2020.13 1250.24 2033.91 1264.02 2020.13 1277.8 2006.35 1264.02Z" fill="#FFFFFF" fill-rule="evenodd"/><path d="M1978.68 1295.02 1992.46 1308.8 1978.68 1322.58 1964.9 1308.8Z" fill="#FFFFFF" fill-rule="evenodd"/><path d="M2063.53 1294.25 2077.31 1308.03 2063.53 1321.81 2049.75 1308.03Z" fill="#FFFFFF" fill-rule="evenodd"/><path d="M2020.13 1294.25 2033.91 1308.03 2020.13 1321.81 2006.35 1308.03Z" fill="#FFFFFF" fill-rule="evenodd"/><path d="M1977.82 1337.99 1991.6 1351.77 1977.82 1365.55 1964.03 1351.77Z" fill="#FFFFFF" fill-rule="evenodd"/><path d="M2062.67 1337.22 2076.45 1351 2062.67 1364.78 2048.88 1351Z" fill="#FFFFFF" fill-rule="evenodd"/><path d="M2019.27 1337.22 2033.05 1351 2019.27 1364.78 2005.49 1351Z" fill="#FFFFFF" fill-rule="evenodd"/><path d="M2000.01 1271.15 2013.79 1284.93 2000.01 1298.71 1986.23 1284.93Z" fill="#FFFFFF" fill-rule="evenodd"/><path d="M2041.47 1270.38 2055.25 1284.16 2041.47 1297.94 2027.69 1284.16Z" fill="#FFFFFF" fill-rule="evenodd"/><path d="M2000.01 1315.16 2013.79 1328.94 2000.01 1342.72 1986.23 1328.94Z" fill="#FFFFFF" fill-rule="evenodd"/><path d="M2041.46 1314.39 2055.25 1328.17 2041.46 1341.95 2027.68 1328.17Z" fill="#FFFFFF" fill-rule="evenodd"/></g></svg>