<svg width="260" height="259" xmlns="http://www.w3.org/2000/svg" xmlns:xlink="http://www.w3.org/1999/xlink" xml:space="preserve" overflow="hidden"><defs><clipPath id="clip0"><rect x="2800" y="785" width="260" height="259"/></clipPath><linearGradient x1="2930" y1="785" x2="2930" y2="1044" gradientUnits="userSpaceOnUse" spreadMethod="reflect" id="fill1"><stop offset="0" stop-color="#F7A021"/><stop offset="0.53" stop-color="#F7A021"/><stop offset="0.63" stop-color="#F0467B"/><stop offset="1" stop-color="#F0467B"/></linearGradient></defs><g clip-path="url(#clip0)" transform="translate(-2800 -785)"><rect x="2800" y="785" width="260" height="259" fill="url(#fill1)"/><rect x="2800" y="872" width="259" height="84.9999" fill="#4751D9"/><path d="M2894.29 890.331 2908.07 904.111 2894.29 917.891 2880.51 904.111Z" fill="#FFFFFF" fill-rule="evenodd"/><path d="M2865.84 910.326 2879.62 924.106 2865.84 937.887 2852.06 924.106Z" fill="#FFFFFF" fill-rule="evenodd"/><path d="M2964.82 891.069 2978.6 904.849 2964.82 918.629 2951.04 904.849Z" fill="#FFFFFF" fill-rule="evenodd"/><path d="M2992.38 910.363 3006.16 924.143 2992.38 937.924 2978.6 924.143Z" fill="#FFFFFF" fill-rule="evenodd"/><path d="M2930.18 887.77 2943.96 901.55 2930.18 915.33 2916.4 901.55Z" fill="#FFFFFF" fill-rule="evenodd"/></g></svg>