<svg width="260" height="260" xmlns="http://www.w3.org/2000/svg" xmlns:xlink="http://www.w3.org/1999/xlink" xml:space="preserve" overflow="hidden"><defs><clipPath id="clip0"><rect x="1208" y="403" width="260" height="260"/></clipPath></defs><g clip-path="url(#clip0)" transform="translate(-1208 -403)"><rect x="1208" y="403" width="260" height="260" fill="#FFFFFF"/><rect x="1208" y="533" width="260" height="130" fill="#38C887"/><path d="M1314.75 533.548 1330.93 528.461 1331.45 507.475 1378.21 471.862 1373.33 494.12 1409.3 476.313 1384.89 513.516 1386.69 528.461 1369.99 535.138 1394.4 538.954 1408.01 534.82 1395.68 535.138 1391.83 524.327 1400.82 515.742 1412.38 515.742 1414.18 510.654 1405.19 510.972 1426 485.852 1425.23 519.24 1420.35 511.29 1416.24 521.465 1419.06 532.912 1405.45 550.083 1389.26 552.627 1397.74 558.032 1410.33 568.525 1401.33 599.369 1413.15 606.682 1373.33 607 1383.86 600.641 1366.91 597.779 1376.41 593.645 1372.56 582.834 1391.31 596.189 1393.37 588.876 1393.63 569.161 1361.25 560.894 1357.14 568.207 1368.96 579.336 1345.84 600.005 1357.14 606.046 1317.32 605.41 1326.31 599.369 1315 593.963 1328.11 593.963 1319.12 584.106 1339.41 591.737 1350.2 584.742 1334.02 569.161 1313.72 568.525 1293.16 598.733 1305.24 606.046 1262.33 605.728 1271.33 599.369 1258.74 595.553 1271.58 593.327 1264.65 584.106 1279.03 592.691 1287.77 593.327 1293.16 569.161 1284.94 569.161 1280.83 581.244 1272.35 561.53 1259.51 543.406 1250.26 551.355 1257.71 537.364 1257.71 528.779 1250 510.972 1260.53 521.783 1258.22 502.387 1265.42 520.829 1268.24 510.018 1268.76 542.77 1278.01 552.945 1284.17 552.945 1283.92 530.051 1296.76 503.977 1292.14 503.977 1284.17 514.152 1281.6 504.613 1265.42 501.751 1267.21 509.064 1252.31 488.078 1270.81 494.438 1267.21 497.935 1283.14 497.617 1278.78 492.212 1267.47 492.212 1279.03 484.581 1285.46 484.263 1288.8 479.493 1302.16 480.129 1304.21 476.949 1316.03 469 1313.72 476.949 1324 471.544 1316.55 485.216 1313.98 485.852 1316.29 491.258 1324.51 498.253 1315.52 500.797 1323.23 520.511 1312.95 520.511 1314.75 533.548Z" fill="#F0467B" fill-rule="evenodd"/></g></svg>